<?xml version="1.0" standalone="no"?>
<!DOCTYPE svg PUBLIC "-//W3C//DTD SVG 20010904//EN"
 "http://www.w3.org/TR/2001/REC-SVG-20010904/DTD/svg10.dtd">
<svg version="1.0" xmlns="http://www.w3.org/2000/svg"
 width="65.000000pt" height="65.000000pt" viewBox="0 0 65.000000 65.000000"
 preserveAspectRatio="xMidYMid meet">
  <g transform="translate(0.000000,65.000000) scale(0.100000,-0.100000)"
     fill="#FFFFFF" stroke="none">
    <path d="M215 583 c-13 -24 -30 -39 -49 -45 -17 -4 -34 -14 -38 -22 -5 -8 -29
    -18 -54 -22 -43 -6 -45 -8 -39 -33 10 -41 32 -58 84 -65 l48 -6 23 -74 23 -74
    -28 -67 c-20 -46 -37 -71 -56 -80 -22 -12 -39 -33 -39 -51 0 -2 34 -4 75 -4
    62 0 80 4 97 20 19 17 20 24 10 57 -6 21 -8 57 -5 80 5 36 2 44 -21 64 -33 29
    -33 42 4 72 17 14 30 34 30 43 0 30 69 -45 80 -88 11 -37 31 -58 89 -90 18
    -10 38 -33 47 -53 15 -37 34 -47 33 -17 -1 40 -36 149 -57 179 -13 18 -50 54
    -84 80 -54 42 -67 59 -105 141 -24 50 -44 92 -46 92 -1 0 -11 -17 -22 -37z"/>
    <path d="M556 339 c4 -24 11 -47 17 -50 13 -9 0 -29 -19 -29 -18 0 -18 -11 2
    -82 15 -53 15 -59 0 -83 -9 -14 -23 -25 -30 -25 -7 0 -19 -7 -26 -15 -23 -28
    43 -19 70 10 20 21 22 31 17 74 -4 34 -2 54 8 67 29 38 13 129 -30 164 -14 12
    -15 9 -9 -31z"/>
    <path d="M368 153 c7 -3 16 -2 19 1 4 3 -2 6 -13 5 -11 0 -14 -3 -6 -6z"/>
    <path d="M317 73 c-6 -34 -6 -34 14 -19 14 10 15 15 4 29 -11 16 -13 15 -18
    -10z"/>
  </g>
</svg>
